<mxfile host="Electron" modified="2024-08-24T15:13:20.223Z" agent="Mozilla/5.0 (Windows NT 10.0; Win64; x64) AppleWebKit/537.36 (KHTML, like Gecko) draw.io/24.2.5 Chrome/120.0.6099.109 Electron/28.1.0 Safari/537.36" etag="I_8hRBIgBgJDEi1F8gCB" version="24.2.5" type="device">
  <diagram name="第 1 页" id="T55oCx6T3UNSbYCQgQW6">
    <mxGraphModel dx="989" dy="577" grid="1" gridSize="10" guides="1" tooltips="1" connect="1" arrows="1" fold="1" page="1" pageScale="1" pageWidth="827" pageHeight="1169" math="0" shadow="0">
      <root>
        <mxCell id="0" />
        <mxCell id="1" parent="0" />
        <mxCell id="8N6pdxLS-7onYNRDn3xs-1" value="" style="whiteSpace=wrap;html=1;aspect=fixed;fillColor=#f5f5f5;strokeColor=#666666;fontColor=#333333;" vertex="1" parent="1">
          <mxGeometry x="310" y="520" width="80" height="80" as="geometry" />
        </mxCell>
        <mxCell id="8N6pdxLS-7onYNRDn3xs-2" value="" style="whiteSpace=wrap;html=1;aspect=fixed;fillColor=#f5f5f5;strokeColor=#666666;fontColor=#333333;" vertex="1" parent="1">
          <mxGeometry x="390" y="520" width="80" height="80" as="geometry" />
        </mxCell>
        <mxCell id="8N6pdxLS-7onYNRDn3xs-4" value="" style="whiteSpace=wrap;html=1;aspect=fixed;fillColor=#f5f5f5;strokeColor=#666666;fontColor=#333333;" vertex="1" parent="1">
          <mxGeometry x="310" y="600" width="80" height="80" as="geometry" />
        </mxCell>
        <mxCell id="8N6pdxLS-7onYNRDn3xs-5" value="" style="whiteSpace=wrap;html=1;aspect=fixed;fillColor=#f5f5f5;fontColor=#333333;strokeColor=#666666;" vertex="1" parent="1">
          <mxGeometry x="390" y="600" width="80" height="80" as="geometry" />
        </mxCell>
        <mxCell id="8N6pdxLS-7onYNRDn3xs-8" value="" style="rounded=0;whiteSpace=wrap;html=1;fillColor=#1ba1e2;strokeColor=#006EAF;fillStyle=hatch;fontColor=#ffffff;" vertex="1" parent="1">
          <mxGeometry x="330" y="570" width="120" height="60" as="geometry" />
        </mxCell>
        <mxCell id="8N6pdxLS-7onYNRDn3xs-9" value="" style="ellipse;whiteSpace=wrap;html=1;aspect=fixed;fillStyle=hatch;fillColor=#1ba1e2;fontColor=#ffffff;strokeColor=#006EAF;" vertex="1" parent="1">
          <mxGeometry x="30" y="520" width="160" height="160" as="geometry" />
        </mxCell>
        <mxCell id="8N6pdxLS-7onYNRDn3xs-10" value="" style="ellipse;whiteSpace=wrap;html=1;aspect=fixed;fillColor=#d80073;fontColor=#ffffff;strokeColor=#A50040;" vertex="1" parent="1">
          <mxGeometry x="130" y="575" width="10" height="10" as="geometry" />
        </mxCell>
        <mxCell id="8N6pdxLS-7onYNRDn3xs-11" value="" style="ellipse;whiteSpace=wrap;html=1;aspect=fixed;fillColor=#d80073;fontColor=#ffffff;strokeColor=#A50040;" vertex="1" parent="1">
          <mxGeometry x="414" y="580" width="10" height="10" as="geometry" />
        </mxCell>
        <mxCell id="8N6pdxLS-7onYNRDn3xs-12" value="" style="endArrow=classic;html=1;rounded=0;" edge="1" parent="1">
          <mxGeometry width="50" height="50" relative="1" as="geometry">
            <mxPoint x="390" y="715" as="sourcePoint" />
            <mxPoint x="390" y="455" as="targetPoint" />
          </mxGeometry>
        </mxCell>
        <mxCell id="8N6pdxLS-7onYNRDn3xs-13" value="" style="endArrow=classic;html=1;rounded=0;" edge="1" parent="1">
          <mxGeometry width="50" height="50" relative="1" as="geometry">
            <mxPoint x="280" y="600" as="sourcePoint" />
            <mxPoint x="520" y="600" as="targetPoint" />
          </mxGeometry>
        </mxCell>
        <mxCell id="8N6pdxLS-7onYNRDn3xs-15" value="" style="endArrow=classic;html=1;rounded=0;exitX=1;exitY=0.5;exitDx=0;exitDy=0;dashed=1;edgeStyle=orthogonalEdgeStyle;curved=1;entryX=1;entryY=0;entryDx=0;entryDy=0;strokeWidth=3;" edge="1" parent="1" source="8N6pdxLS-7onYNRDn3xs-10" target="8N6pdxLS-7onYNRDn3xs-11">
          <mxGeometry width="50" height="50" relative="1" as="geometry">
            <mxPoint x="250" y="620" as="sourcePoint" />
            <mxPoint x="300" y="570" as="targetPoint" />
            <Array as="points">
              <mxPoint x="140" y="500" />
              <mxPoint x="423" y="500" />
            </Array>
          </mxGeometry>
        </mxCell>
        <mxCell id="8N6pdxLS-7onYNRDn3xs-16" value="&lt;b&gt;Zoom = 1&lt;/b&gt;" style="text;html=1;align=center;verticalAlign=middle;whiteSpace=wrap;rounded=0;" vertex="1" parent="1">
          <mxGeometry x="424" y="690" width="60" height="30" as="geometry" />
        </mxCell>
        <mxCell id="8N6pdxLS-7onYNRDn3xs-17" value="&lt;b&gt;(Lat,Lon)&lt;/b&gt;" style="text;html=1;align=center;verticalAlign=middle;whiteSpace=wrap;rounded=0;" vertex="1" parent="1">
          <mxGeometry x="130" y="580" width="60" height="30" as="geometry" />
        </mxCell>
        <mxCell id="8N6pdxLS-7onYNRDn3xs-18" value="&lt;b&gt;(X,Y) To (PixelX,PixelY)&lt;/b&gt;" style="text;html=1;align=center;verticalAlign=middle;whiteSpace=wrap;rounded=0;" vertex="1" parent="1">
          <mxGeometry x="440" y="530" width="60" height="30" as="geometry" />
        </mxCell>
      </root>
    </mxGraphModel>
  </diagram>
</mxfile>
